<?xml version="1.0" standalone="no"?>
<!DOCTYPE svg PUBLIC "-//W3C//DTD SVG 20010904//EN"
 "http://www.w3.org/TR/2001/REC-SVG-20010904/DTD/svg10.dtd">
<svg version="1.0" xmlns="http://www.w3.org/2000/svg"
 width="675.000000pt" height="122.000000pt" viewBox="0 0 675.000000 122.000000"
 preserveAspectRatio="xMidYMid meet">

<g transform="translate(0.000000,122.000000) scale(0.100000,-0.100000)"
fill="#000000" stroke="none">
<path d="M794 1085 c-109 -109 -142 -148 -148 -174 -11 -60 -7 -549 5 -557 14
-8 274 249 289 287 9 20 9 105 3 306 l-9 278 -140 -140z"/>
<path d="M6430 630 l0 -310 24 0 25 0 3 166 3 166 37 34 c46 41 85 44 125 10
l28 -24 3 -176 3 -176 30 0 30 0 -3 179 c-3 202 -9 218 -82 255 -48 23 -95 15
-141 -26 l-35 -30 0 121 0 121 -25 0 -25 0 0 -310z"/>
<path d="M4642 908 c-21 -21 -14 -57 12 -64 33 -8 46 2 46 36 0 36 -33 53 -58
28z"/>
<path d="M4790 905 c-26 -32 13 -81 48 -59 23 15 26 38 7 58 -20 20 -39 20
-55 1z"/>
<path d="M12 902 c-9 -7 -12 -73 -10 -298 l3 -289 289 -3 c225 -2 291 1 298
10 11 19 10 532 -2 562 l-10 26 -277 0 c-153 0 -284 -4 -291 -8z"/>
<path d="M1543 899 c-10 -10 -13 -82 -13 -290 0 -234 2 -278 15 -289 11 -9 46
-11 123 -8 95 4 114 8 161 33 85 47 130 126 138 245 10 138 -42 242 -144 290
-58 27 -259 41 -280 19z m238 -102 c49 -32 79 -97 79 -172 0 -88 -16 -134 -65
-182 -40 -40 -46 -43 -99 -43 l-56 0 0 210 0 210 54 0 c38 0 62 -6 87 -23z"/>
<path d="M2082 898 c-9 -9 -12 -88 -12 -294 0 -308 -3 -294 59 -294 46 0 51
14 51 147 l0 123 100 0 100 0 0 -129 c0 -140 0 -141 59 -141 50 0 51 4 51 300
0 296 -1 300 -51 300 -58 0 -59 -3 -59 -126 l0 -114 -100 0 -100 0 0 108 c0
71 -4 112 -12 120 -16 16 -70 16 -86 0z"/>
<path d="M2610 610 l0 -290 110 0 c127 0 161 10 208 64 28 32 32 43 32 96 0
66 -25 107 -80 130 l-29 12 45 42 c39 34 47 48 51 86 4 36 0 52 -19 80 -38 57
-76 70 -205 70 l-113 0 0 -290z m203 239 c26 -7 44 -21 57 -42 24 -39 25 -59
5 -97 -22 -42 -63 -60 -140 -60 l-65 0 0 98 c0 54 3 102 7 105 10 11 94 8 136
-4z m21 -263 c66 -27 85 -99 46 -164 -27 -43 -77 -64 -148 -60 l-57 3 -3 104
c-1 58 0 111 2 118 7 18 116 17 160 -1z"/>
<path d="M3030 888 c0 -7 25 -138 57 -290 l56 -278 37 0 36 0 38 198 c49 260
57 294 63 288 3 -3 26 -112 52 -243 l46 -238 37 -3 36 -3 11 53 c6 29 31 152
56 272 25 121 45 228 45 239 0 14 -6 18 -27 15 l-28 -3 -37 -210 c-50 -286
-49 -278 -55 -271 -3 3 -26 112 -52 243 l-46 238 -33 3 c-41 4 -39 10 -92
-266 -24 -122 -46 -219 -50 -215 -4 4 -24 105 -44 223 -50 285 -43 260 -77
260 -16 0 -29 -5 -29 -12z"/>
<path d="M4220 610 l0 -290 140 0 140 0 0 25 0 25 -110 0 -110 0 0 265 0 265
-30 0 -30 0 0 -290z"/>
<path d="M4685 756 c-71 -33 -115 -115 -115 -215 0 -88 23 -153 70 -195 37
-33 45 -36 99 -36 50 0 65 4 91 26 50 43 73 98 78 190 4 72 1 89 -21 136 -13
30 -38 65 -55 76 -39 28 -108 37 -147 18z m103 -52 c12 -8 32 -34 43 -57 18
-34 21 -54 17 -123 -5 -98 -36 -158 -87 -169 -72 -16 -121 46 -129 161 -9 149
72 247 156 188z"/>
<path d="M5150 753 c-14 -9 -33 -27 -42 -38 -17 -20 -17 -19 -18 13 0 27 -4
32 -25 32 l-25 0 0 -220 0 -220 25 0 25 0 0 150 c0 161 7 193 52 224 12 9 37
16 54 16 24 0 33 5 37 22 7 27 8 26 -29 33 -19 4 -37 0 -54 -12z"/>
<path d="M5465 761 c-11 -5 -29 -18 -39 -30 -25 -28 -36 -27 -36 4 0 20 -5 25
-25 25 l-25 0 0 -220 0 -220 30 0 30 0 0 166 0 166 29 29 c21 21 39 29 64 29
27 0 36 5 40 22 4 12 5 23 4 24 -8 9 -56 12 -72 5z"/>
<path d="M5688 755 c-54 -17 -59 -23 -51 -53 l5 -21 39 19 c94 48 181 1 167
-90 -2 -19 -15 -25 -76 -41 -125 -31 -172 -73 -172 -151 1 -72 44 -108 129
-108 42 0 56 5 84 30 42 36 47 37 47 5 0 -20 5 -25 26 -25 l26 0 -4 178 c-3
191 -9 212 -61 247 -35 22 -105 27 -159 10z m151 -336 c-24 -60 -115 -88 -156
-49 -66 61 -20 131 107 163 l55 14 3 -50 c2 -27 -2 -63 -9 -78z"/>
<path d="M6165 763 c-142 -37 -184 -309 -65 -417 36 -33 45 -36 99 -36 32 0
72 5 90 11 26 9 30 15 25 33 -9 30 -7 29 -62 10 -71 -25 -106 -9 -139 64 -21
44 -25 65 -21 120 4 77 32 139 71 162 26 14 31 14 115 -11 8 -2 18 6 23 18 6
17 4 25 -9 32 -22 12 -102 21 -127 14z"/>
</g>
</svg>
